<?xml version="1.0" encoding="UTF-8" standalone="no"?>
<!-- Created with Inkscape (http://www.inkscape.org/) -->

<svg
   width="300mm"
   height="300mm"
   viewBox="0 0 300 300"
   version="1.1"
   id="svg1"
   sodipodi:docname="YaCut.svg"
   inkscape:version="1.3 (0e150ed6c4, 2023-07-21)"
   xmlns:inkscape="http://www.inkscape.org/namespaces/inkscape"
   xmlns:sodipodi="http://sodipodi.sourceforge.net/DTD/sodipodi-0.dtd"
   xmlns="http://www.w3.org/2000/svg"
   xmlns:svg="http://www.w3.org/2000/svg">
  <sodipodi:namedview
     id="namedview1"
     pagecolor="#ffffff"
     bordercolor="#999999"
     borderopacity="1"
     inkscape:showpageshadow="2"
     inkscape:pageopacity="0"
     inkscape:pagecheckerboard="0"
     inkscape:deskcolor="#d1d1d1"
     inkscape:document-units="mm"
     showguides="false"
     inkscape:zoom="0.74029883"
     inkscape:cx="600.4332"
     inkscape:cy="434.28408"
     inkscape:window-width="1920"
     inkscape:window-height="1027"
     inkscape:window-x="-8"
     inkscape:window-y="22"
     inkscape:window-maximized="1"
     inkscape:current-layer="svg1" />
  <defs
     id="defs1" />
  <rect
     style="fill:#000000;stroke-width:0.907926"
     id="rect10"
     width="41.626488"
     height="161.30264"
     x="133.84766"
     y="138.57602" />
  <path
     style="fill:#000000;stroke-width:0.892543"
     d="M 296.75571,2.9203335 249.82285,1.6195065 134.58583,138.64003 h 40.64723 z"
     id="path11-6" />
  <path
     d="M 154.55514,-0.33810715 A 149.80783,149.80783 0 0 0 133.23484,1.1869256 149.80783,149.80783 0 0 0 112.34899,5.7301037 149.80783,149.80783 0 0 0 92.323184,13.199215 149.80783,149.80783 0 0 0 73.563512,23.44353 149.80783,149.80783 0 0 0 56.45123,36.25203 149.80783,149.80783 0 0 0 41.33745,51.365808 149.80783,149.80783 0 0 0 28.528951,68.478093 149.80783,149.80783 0 0 0 18.284634,87.237765 a 149.80783,149.80783 0 0 0 -7.46911,20.025795 149.80783,149.80783 0 0 0 -4.5431796,20.88586 149.80783,149.80783 0 0 0 -1.5250314,21.3203 149.80783,149.80783 0 0 0 1.5250314,21.32031 149.80783,149.80783 0 0 0 4.5431796,20.88585 149.80783,149.80783 0 0 0 7.46911,20.02581 149.80783,149.80783 0 0 0 10.244317,18.75967 149.80783,149.80783 0 0 0 12.808499,17.11227 149.80783,149.80783 0 0 0 15.11378,15.1138 149.80783,149.80783 0 0 0 17.112282,12.80848 149.80783,149.80783 0 0 0 18.759672,10.24431 149.80783,149.80783 0 0 0 20.025806,7.46913 149.80783,149.80783 0 0 0 20.88585,4.54318 149.80783,149.80783 0 0 0 21.3203,1.52502 149.80783,149.80783 0 0 0 21.32031,-1.52502 149.80783,149.80783 0 0 0 20.88585,-4.54318 149.80783,149.80783 0 0 0 20.02581,-7.46913 149.80783,149.80783 0 0 0 18.75966,-10.24431 149.80783,149.80783 0 0 0 17.11228,-12.80848 149.80783,149.80783 0 0 0 15.11375,-15.1138 149.80783,149.80783 0 0 0 12.80853,-17.11227 149.80783,149.80783 0 0 0 4.85883,-8.8984 l -42.23099,-26.79621 a 99.871884,99.871884 0 0 1 -2.16164,4.6389 99.871884,99.871884 0 0 1 -9.98541,14.26085 99.871884,99.871884 0 0 1 -12.31022,12.31018 99.871884,99.871884 0 0 1 -14.26082,9.98544 99.871884,99.871884 0 0 1 -15.77699,7.35561 99.871884,99.871884 0 0 1 -16.81614,4.50591 99.871884,99.871884 0 0 1 -17.34281,1.51798 99.871884,99.871884 0 0 1 -17.34281,-1.51798 99.871884,99.871884 0 0 1 -16.81614,-4.50591 99.871884,99.871884 0 0 1 -15.77699,-7.35561 99.871884,99.871884 0 0 1 -14.260827,-9.98544 99.871884,99.871884 0 0 1 -12.310202,-12.31018 99.871884,99.871884 0 0 1 -9.985416,-14.26085 99.871884,99.871884 0 0 1 -7.355621,-15.77699 99.871884,99.871884 0 0 1 -4.505937,-16.81613 99.871884,99.871884 0 0 1 -1.517941,-17.34281 99.871884,99.871884 0 0 1 1.517941,-17.34281 99.871884,99.871884 0 0 1 4.505937,-16.81614 99.871884,99.871884 0 0 1 7.355621,-15.776988 99.871884,99.871884 0 0 1 9.985416,-14.260828 99.871884,99.871884 0 0 1 12.310202,-12.310203 99.871884,99.871884 0 0 1 14.260827,-9.985418 99.871884,99.871884 0 0 1 15.77699,-7.355618 99.871884,99.871884 0 0 1 16.81614,-4.505939 99.871884,99.871884 0 0 1 17.34281,-1.51794 99.871884,99.871884 0 0 1 6.03097,0.182673 99.871884,99.871884 0 0 1 6.00792,0.546173 99.871884,99.871884 0 0 1 5.96359,0.907929 99.871884,99.871884 0 0 1 5.89797,1.266133 99.871884,99.871884 0 0 1 5.81108,1.619016 99.871884,99.871884 0 0 1 5.70291,1.968356 99.871884,99.871884 0 0 1 5.57347,2.308829 99.871884,99.871884 0 0 1 5.4245,2.640432 99.871884,99.871884 0 0 1 5.25427,2.963174 99.871884,99.871884 0 0 1 5.0663,3.277047 99.871884,99.871884 0 0 1 4.8606,3.57496 99.871884,99.871884 0 0 1 4.63362,3.862229 99.871884,99.871884 0 0 1 4.39243,4.135322 99.871884,99.871884 0 0 1 4.13533,4.392449 99.871884,99.871884 0 0 1 3.86224,4.633618 99.871884,99.871884 0 0 1 3.57495,4.860594 99.871884,99.871884 0 0 1 1.17569,1.819398 l 42.16714,-26.755451 a 149.80783,149.80783 0 0 0 -2.57838,-3.911884 149.80783,149.80783 0 0 0 -4.49174,-6.117861 149.80783,149.80783 0 0 0 -4.79677,-5.882016 149.80783,149.80783 0 0 0 -5.08934,-5.631981 149.80783,149.80783 0 0 0 -5.36598,-5.365985 149.80783,149.80783 0 0 0 -5.63195,-5.089351 149.80783,149.80783 0 0 0 -5.88205,-4.796762 149.80783,149.80783 0 0 0 -6.11787,-4.491764 149.80783,149.80783 0 0 0 -6.33772,-4.176107 149.80783,149.80783 0 0 0 -6.54169,-3.851603 149.80783,149.80783 0 0 0 -6.72788,-3.514668 149.80783,149.80783 0 0 0 -6.89634,-3.168875 149.80783,149.80783 0 0 0 -7.04884,-2.814215 149.80783,149.80783 0 0 0 -7.18183,-2.4560148 149.80783,149.80783 0 0 0 -7.29711,-2.0871657 149.80783,149.80783 0 0 0 -7.39286,-1.7165461 149.80783,149.80783 0 0 0 -7.47088,-1.3388401 149.80783,149.80783 0 0 0 -7.5294,-0.95934946 149.80783,149.80783 0 0 0 -7.56842,-0.57631784 149.80783,149.80783 0 0 0 -7.58793,-0.19152521 z"
     style="fill:#d40000;stroke-width:0.919881"
     id="path12" />
  <path
     style="fill:#000000;stroke-width:0.892543"
     d="M 12.437047,2.856345 59.369919,1.5555133 174.60689,138.57604 h -40.64722 z"
     id="path11" />
</svg>
